<svg width="16" height="22" viewBox="0 0 16 22" fill="none" xmlns="http://www.w3.org/2000/svg">
<path fill-rule="evenodd" clip-rule="evenodd" d="M10.7808 18.7005C13.0905 15.7551 16 11.4759 16 8.6087C16 3.85424 12.4183 0 8 0C3.58172 0 0 3.85424 0 8.6087C0 11.4759 2.90945 15.7551 5.21921 18.7005C6.42425 20.2371 7.02677 21.0055 8 21.0055C8.97323 21.0055 9.57575 20.2371 10.7808 18.7005ZM8.75 6C8.75 5.58579 8.41421 5.25 8 5.25C7.58579 5.25 7.25 5.58579 7.25 6L7.25 8.25H5C4.58579 8.25 4.25 8.58579 4.25 9C4.25 9.41421 4.58579 9.75 5 9.75H7.25V12C7.25 12.4142 7.58579 12.75 8 12.75C8.41421 12.75 8.75 12.4142 8.75 12V9.75H11C11.4142 9.75 11.75 9.41421 11.75 9C11.75 8.58579 11.4142 8.25 11 8.25H8.75V6Z" fill="#1E1E1E"/>
</svg>
