<svg width="30" height="30" viewBox="0 0 30 30" fill="none" xmlns="http://www.w3.org/2000/svg">
<path fill-rule="evenodd" clip-rule="evenodd" d="M-3.11732e-05 15C-3.15354e-05 6.71573 6.7157 3.40197e-06 15 3.03986e-06C23.2842 2.67774e-06 30 6.71573 30 15C30 23.2843 23.2842 30 15 30C6.7157 30 -3.08111e-05 23.2843 -3.11732e-05 15ZM21 13.875C21.6213 13.875 22.125 14.3787 22.125 15C22.125 15.6213 21.6213 16.125 21 16.125L10.5957 16.125C10.6123 16.1463 10.6295 16.1681 10.6473 16.1903C11.036 16.6742 11.614 17.2495 12.4763 18.1042L14.5919 20.201C15.0332 20.6383 15.0364 21.3506 14.599 21.7919C14.1616 22.2332 13.4493 22.2364 13.008 21.799L10.8463 19.6565C10.042 18.8594 9.37127 18.1947 8.89301 17.5991C8.39137 16.9745 8.00981 16.318 7.90786 15.5182C7.88594 15.3462 7.87497 15.1731 7.87497 15C7.87497 14.8269 7.88594 14.6538 7.90786 14.4818C8.00981 13.682 8.39137 13.0255 8.89301 12.4009C9.37127 11.8053 10.042 11.1406 10.8463 10.3435L13.008 8.20097C13.4493 7.76359 14.1616 7.76677 14.599 8.20806C15.0364 8.64936 15.0332 9.36166 14.5919 9.79904L12.4763 11.8958C11.614 12.7505 11.036 13.3258 10.6473 13.8097C10.6295 13.8319 10.6123 13.8537 10.5957 13.875L21 13.875Z" fill="#3C5936"/>
</svg>
