<svg width="268" height="135" viewBox="0 0 268 135" fill="none" xmlns="http://www.w3.org/2000/svg">
<g clip-path="url(#clip0_902_1957)">
<path d="M126 8.09H141.74V0H120L75.3 98.5C73.44 102.57 69.6 110.71 64.15 116.3C57.5 123.12 47.9 125.9 40.47 125.9C22.48 125.9 9 112.26 9 94.28C9 76.3 22.48 62.65 40.47 62.65C47.0001 62.5659 53.389 64.5529 58.7195 68.3258C64.0501 72.0987 68.0482 77.4634 70.14 83.65H79.44C75.09 66.41 59.65 54.27 40.44 54.27C17.39 54.26 0 71.5 0 94.28C0 117.06 17.39 134.28 40.47 134.28C58.02 134.28 71.41 126.9 82.11 104.9L82.37 104.3C83.27 102.42 84.15 100.46 85.01 98.37L111.63 38.5L141.16 104.9H151.16L116.45 28.48L126 8.09Z" fill="#1E1E1E"/>
<path d="M196.48 62.65C203.01 62.5659 209.399 64.5529 214.73 68.3258C220.06 72.0987 224.058 77.4634 226.15 83.65H235.45C231.1 66.41 215.66 54.27 196.45 54.27C173.37 54.27 155.98 71.51 155.98 94.27C155.98 117.03 173.37 134.27 196.45 134.27C215.63 134.27 231.07 122.13 235.45 104.89H226.15C224.06 111.077 220.062 116.443 214.731 120.216C209.4 123.989 203.01 125.976 196.48 125.89C178.48 125.89 165 112.25 165 94.27C165 76.29 178.49 62.65 196.48 62.65Z" fill="#1E1E1E"/>
<path d="M252.12 126.2V26.38H243.43V134.3H267.26V126.2H252.12Z" fill="#1E1E1E"/>
</g>
<defs>
<clipPath id="clip0_902_1957">
<rect width="267.26" height="134.3" fill="white"/>
</clipPath>
</defs>
</svg>
