<svg width="20" height="20" viewBox="0 0 20 20" fill="none" xmlns="http://www.w3.org/2000/svg">
<path fill-rule="evenodd" clip-rule="evenodd" d="M10.0452 0.25C11.8818 0.249992 13.3214 0.249985 14.4635 0.373728C15.6291 0.500006 16.5734 0.762324 17.3798 1.34815C17.8679 1.70281 18.2972 2.13209 18.6518 2.62024C19.2377 3.42656 19.5 4.37094 19.6263 5.53648C19.75 6.67859 19.75 8.11816 19.75 9.95465V10.0453C19.75 11.8818 19.75 13.3214 19.6263 14.4635C19.5 15.6291 19.2377 16.5734 18.6518 17.3798C18.2972 17.8679 17.8679 18.2972 17.3798 18.6518C16.5734 19.2377 15.6291 19.5 14.4635 19.6263C13.3214 19.75 11.8818 19.75 10.0453 19.75H9.95473C8.11824 19.75 6.67859 19.75 5.53648 19.6263C4.37094 19.5 3.42656 19.2377 2.62024 18.6518C2.13209 18.2972 1.70281 17.8679 1.34815 17.3798C0.762324 16.5734 0.500006 15.6291 0.373728 14.4635C0.249985 13.3214 0.249992 11.8818 0.25 10.0452V9.95475C0.249992 8.11821 0.249985 6.67861 0.373728 5.53648C0.500006 4.37094 0.762324 3.42656 1.34815 2.62024C1.70281 2.13209 2.13209 1.70281 2.62024 1.34815C3.42656 0.762324 4.37094 0.500006 5.53648 0.373728C6.67861 0.249985 8.11821 0.249992 9.95475 0.25H10.0452ZM15.6734 7.47315C15.8558 7.10127 15.7022 6.65192 15.3303 6.4695C14.9584 6.28708 14.5091 6.44067 14.3266 6.81255L12.8663 9.7896C12.4137 10.7124 11.0833 10.6673 10.6942 9.71602C9.815 7.56697 6.80955 7.46517 5.78698 9.54979L4.32665 12.5268C4.14423 12.8987 4.29782 13.3481 4.6697 13.5305C5.04158 13.7129 5.49093 13.5593 5.67335 13.1874L7.13368 10.2104C7.58632 9.28763 8.91668 9.3327 9.30584 10.284C10.185 12.433 13.1904 12.5348 14.213 10.4502L15.6734 7.47315Z" fill="#1E1E1E"/>
</svg>
