<svg width="127" height="47" viewBox="0 0 127 47" fill="none" xmlns="http://www.w3.org/2000/svg">
<g clip-path="url(#clip0_926_439)">
<path d="M4.4905 15.7068L4.87891 18.5715L4.80746 18.3479C5.36727 17.3157 6.15615 16.4413 7.10675 15.7994C8.02403 15.1927 9.13185 14.8888 10.4302 14.8875C11.1932 14.8737 11.9526 14.9996 12.6745 15.2596C13.2966 15.4878 13.8607 15.863 14.3234 16.3565C14.7903 16.8802 15.1077 17.5316 15.2395 18.2361L15.0563 18.2727C15.6812 17.2909 16.492 16.4555 17.438 15.8186C18.3044 15.2183 19.3174 14.8949 20.3547 14.8875C21.8864 14.8875 23.1078 15.3373 24.019 16.237C24.9301 17.1366 25.3973 18.3139 25.4205 19.7687V31.9718H20.505V21.9182C20.503 21.3148 20.3956 20.7168 20.188 20.1543C19.9987 19.6955 19.5627 19.4384 18.8799 19.3832C18.5032 19.3768 18.1292 19.4517 17.781 19.6032C17.4328 19.7547 17.1178 19.9796 16.8554 20.2642C16.2766 20.8905 15.852 21.6562 15.6187 22.4946C15.3454 23.4032 15.2063 24.3505 15.2065 25.3035V31.964H10.2598V21.9182C10.2612 21.3086 10.1361 20.7059 9.89339 20.1524C9.66804 19.6935 9.21551 19.4391 8.53213 19.3812C8.16251 19.3725 7.79537 19.4468 7.45515 19.599C7.11492 19.7513 6.80941 19.978 6.55895 20.2642C6.00118 20.8942 5.58979 21.6518 5.35709 22.4773C5.08422 23.3667 4.94574 24.2956 4.9467 25.2302V31.964H0V15.7068H4.4905Z" fill="#011620"/>
<path d="M30.4131 9.93673C30.407 9.57107 30.4822 9.20897 30.6326 8.87929C30.7831 8.54961 31.0047 8.26147 31.2797 8.03784C31.7951 7.56653 32.4527 7.30285 33.1356 7.2937C33.8087 7.29868 34.4568 7.56346 34.9567 8.03784C35.2214 8.26822 35.433 8.55882 35.5755 8.88775C35.718 9.21668 35.7877 9.57535 35.7793 9.93673C35.7876 10.296 35.7169 10.6524 35.5726 10.9782C35.4283 11.3039 35.2144 11.5901 34.9475 11.8144C34.443 12.2784 33.7965 12.5357 33.1264 12.5393C32.4466 12.5314 31.7905 12.2752 31.2705 11.8144C30.9969 11.5948 30.7766 11.3102 30.6276 10.9839C30.4785 10.6575 30.405 10.2987 30.4131 9.93673ZM30.5193 15.7028H35.466V31.96H30.5193V15.7028Z" fill="#011620"/>
<path d="M40.552 2.61108H45.4987V31.9639H40.552V2.61108Z" fill="#011620"/>
<path d="M50.5919 31.9639V2.61108H55.5386V31.9639H50.5919ZM54.0564 27.4625L53.5618 22.5138L62.8945 15.2961L65.901 18.0875L54.0564 27.4625ZM59.4667 20.9079L66.4653 31.9581H60.7033L56.2128 23.8845L59.4667 20.9079Z" fill="#011620"/>
<path d="M79.7315 44.1592C78.4344 44.1592 77.3443 43.9298 76.4612 43.471C75.5913 43.0229 74.8065 42.4114 74.1454 41.6666L74.5338 40.5504V43.7139H69.5871V14.3611H74.5008V28.5825C75.2292 27.9668 76.0589 27.4969 76.9485 27.1964C78.0653 26.8066 79.2366 26.6176 80.413 26.6374C81.7017 26.6228 82.9709 26.9694 84.0901 27.6418C85.2193 28.3365 86.1428 29.3476 86.7577 30.5624C87.4294 31.8399 87.7659 33.3963 87.7671 35.2316C87.7684 37.0668 87.3971 38.6541 86.6532 39.9932C85.9538 41.285 84.9327 42.3515 83.6999 43.0777C82.4888 43.7949 81.1211 44.1677 79.7315 44.1592V44.1592ZM78.6322 39.7696C79.3489 39.7734 80.0525 39.5671 80.664 39.1739C81.2921 38.7758 81.8101 38.2115 82.1664 37.5372C82.549 36.823 82.7444 36.0147 82.7325 35.1949C82.7485 34.3838 82.5527 33.5837 82.1664 32.8816C81.8036 32.2271 81.286 31.6825 80.664 31.3007C80.0487 30.9188 79.3467 30.7189 78.6322 30.7224C78.0238 30.7175 77.4193 30.8245 76.8459 31.0386C76.3215 31.2313 75.8401 31.5351 75.4315 31.9311C75.0391 32.3227 74.7316 32.7988 74.5301 33.3269V37.3155C74.7885 37.8238 75.1296 38.2806 75.5378 38.665C75.9354 39.03 76.3982 39.3078 76.8991 39.4824C77.4591 39.677 78.0461 39.7721 78.6359 39.7638L78.6322 39.7696Z" fill="#011620"/>
<path d="M90.4439 35.3799C90.4204 33.8125 90.8057 32.2683 91.5578 30.9151C92.3071 29.5951 93.3906 28.5205 94.687 27.8113C96.0306 27.0556 97.5744 26.6777 99.3186 26.6777C101.085 26.6777 102.616 27.0556 103.914 27.8113C105.17 28.5265 106.207 29.6038 106.902 30.917C107.609 32.2858 107.968 33.8238 107.944 35.3818C107.967 36.9451 107.608 38.4884 106.902 39.864C106.209 41.1887 105.173 42.2792 103.914 43.0082C102.619 43.7793 101.063 44.1649 99.2472 44.1649C97.6763 44.1942 96.1206 43.8378 94.7035 43.1239C93.4042 42.461 92.3168 41.4139 91.5743 40.1107C90.8219 38.7921 90.4451 37.2151 90.4439 35.3799ZM95.429 35.4165C95.418 36.2099 95.5877 36.9945 95.9237 37.7048C96.23 38.3582 96.6929 38.9164 97.2667 39.3242C97.8315 39.7203 98.497 39.9273 99.1757 39.9179C99.889 39.9383 100.591 39.7313 101.191 39.3242C101.761 38.9222 102.214 38.3616 102.499 37.7048C102.802 36.9811 102.959 36.1988 102.959 35.4078C102.959 34.6169 102.802 33.8346 102.499 33.1108C102.21 32.462 101.758 31.9087 101.191 31.5108C100.591 31.1039 99.8891 30.8964 99.1757 30.9151C98.4969 30.9072 97.8316 31.1148 97.2667 31.5108C96.6964 31.9145 96.234 32.4654 95.9237 33.1108C95.5838 33.8259 95.4141 34.6171 95.429 35.4165V35.4165Z" fill="#011620"/>
<path d="M127 43.714H121.026L109.117 27.4568H115.198L127 43.714ZM117.667 38.5089L114.203 43.714H109.287L115.405 35.008L117.667 38.5089ZM118.303 32.631L121.234 27.4606H126.148L120.033 36.3883L118.303 32.631Z" fill="#011620"/>
<path d="M59.943 45.05C57.9844 45.05 57.0116 43.5424 56.2971 42.4436C55.5825 41.3447 55.2473 40.9206 54.5969 40.9206C53.9465 40.9206 53.6002 41.3601 52.9003 42.4436C52.2005 43.527 51.213 45.05 49.2544 45.05C47.2959 45.05 46.3231 43.5424 45.6104 42.4436C44.8977 41.3447 44.5606 40.9206 43.912 40.9206C43.2634 40.9206 42.9135 41.3601 42.2136 42.4436C41.5138 43.527 40.5281 45.05 38.5696 45.05C36.611 45.05 35.6382 43.5424 34.9255 42.4436C34.2128 41.3447 33.8775 40.9206 33.229 40.9206C32.5804 40.9206 32.2305 41.3601 31.5306 42.4436C30.8307 43.527 29.8451 45.05 27.8865 45.05C25.928 45.05 24.9552 43.5424 24.2425 42.4436C23.5298 41.3447 23.1927 40.9206 22.5441 40.9206C21.8955 40.9206 21.5456 41.3601 20.8457 42.4436C20.1459 43.527 19.1602 45.05 17.2017 45.05C15.2432 45.05 14.2703 43.5424 13.5576 42.4436C12.8449 41.3447 12.5078 40.9206 11.8592 40.9206C11.2107 40.9206 10.8626 41.3601 10.1627 42.4436C9.46285 43.527 8.47717 45.05 6.51865 45.05C4.56012 45.05 3.58727 43.5424 2.87458 42.4436C2.16189 41.3447 1.82478 40.9206 1.17805 40.9206H0V38.4434H1.17805C3.13474 38.4434 4.10942 39.949 4.82028 41.0498C5.53114 42.1505 5.87008 42.5727 6.51865 42.5727C7.16721 42.5727 7.51531 42.1313 8.21518 41.0498C8.91504 39.9683 9.90255 38.4434 11.8592 38.4434C13.8159 38.4434 14.7906 39.949 15.5051 41.0498C16.2197 42.1505 16.5549 42.5727 17.2017 42.5727C17.8484 42.5727 18.2002 42.1313 18.9 41.0498C19.5999 39.9683 20.5856 38.4434 22.5441 38.4434C24.5026 38.4434 25.4755 39.949 26.1882 41.0498C26.9009 42.1505 27.238 42.5727 27.8865 42.5727C28.5351 42.5727 28.885 42.1313 29.5849 41.0498C30.2848 39.9683 31.2704 38.4434 33.229 38.4434C35.1875 38.4434 36.1603 39.949 36.8712 41.0498C37.5821 42.1505 37.921 42.5727 38.5696 42.5727C39.2181 42.5727 39.5681 42.1313 40.2679 41.0498C40.9678 39.9683 41.9535 38.4434 43.912 38.4434C45.8705 38.4434 46.8434 39.949 47.5561 41.0498C48.2688 42.1505 48.6059 42.5727 49.2544 42.5727C49.903 42.5727 50.2529 42.1313 50.9528 41.0498C51.6527 39.9683 52.6383 38.4434 54.5969 38.4434C56.5554 38.4434 57.5282 39.949 58.2428 41.0478C58.9573 42.1467 59.2944 42.5727 59.943 42.5727C60.5915 42.5727 60.9433 42.1313 61.6432 41.0478C62.343 39.9644 63.3305 38.4434 65.289 38.4434H66.4653V40.9206H65.289C64.6386 40.9206 64.2905 41.3601 63.5889 42.4436C62.8872 43.527 61.9015 45.05 59.943 45.05Z" fill="#FF9A18"/>
<path d="M59.943 45.05C57.9844 45.05 57.0116 43.5424 56.2971 42.4436C55.5825 41.3447 55.2473 40.9206 54.5969 40.9206C53.9465 40.9206 53.6002 41.3601 52.9003 42.4436C52.2005 43.527 51.213 45.05 49.2544 45.05C47.2959 45.05 46.3231 43.5424 45.6104 42.4436C44.8977 41.3447 44.5606 40.9206 43.912 40.9206C43.2634 40.9206 42.9135 41.3601 42.2136 42.4436C41.5138 43.527 40.5281 45.05 38.5696 45.05C36.611 45.05 35.6382 43.5424 34.9255 42.4436C34.2128 41.3447 33.8775 40.9206 33.229 40.9206C32.5804 40.9206 32.2305 41.3601 31.5306 42.4436C30.8307 43.527 29.8451 45.05 27.8865 45.05C25.928 45.05 24.9552 43.5424 24.2425 42.4436C23.5298 41.3447 23.1927 40.9206 22.5441 40.9206C21.8955 40.9206 21.5456 41.3601 20.8457 42.4436C20.1459 43.527 19.1602 45.05 17.2017 45.05C15.2432 45.05 14.2703 43.5424 13.5576 42.4436C12.8449 41.3447 12.5078 40.9206 11.8592 40.9206C11.2107 40.9206 10.8626 41.3601 10.1627 42.4436C9.46285 43.527 8.47717 45.05 6.51865 45.05C4.56012 45.05 3.58727 43.5424 2.87458 42.4436C2.16189 41.3447 1.82478 40.9206 1.17805 40.9206H0V38.4434H1.17805C3.13474 38.4434 4.10942 39.949 4.82028 41.0498C5.53114 42.1505 5.87008 42.5727 6.51865 42.5727C7.16721 42.5727 7.51531 42.1313 8.21518 41.0498C8.91504 39.9683 9.90255 38.4434 11.8592 38.4434C13.8159 38.4434 14.7906 39.949 15.5051 41.0498C16.2197 42.1505 16.5549 42.5727 17.2017 42.5727C17.8484 42.5727 18.2002 42.1313 18.9 41.0498C19.5999 39.9683 20.5856 38.4434 22.5441 38.4434C24.5026 38.4434 25.4755 39.949 26.1882 41.0498C26.9009 42.1505 27.238 42.5727 27.8865 42.5727C28.5351 42.5727 28.885 42.1313 29.5849 41.0498C30.2848 39.9683 31.2704 38.4434 33.229 38.4434C35.1875 38.4434 36.1603 39.949 36.8712 41.0498C37.5821 42.1505 37.921 42.5727 38.5696 42.5727C39.2181 42.5727 39.5681 42.1313 40.2679 41.0498C40.9678 39.9683 41.9535 38.4434 43.912 38.4434C45.8705 38.4434 46.8434 39.949 47.5561 41.0498C48.2688 42.1505 48.6059 42.5727 49.2544 42.5727C49.903 42.5727 50.2529 42.1313 50.9528 41.0498C51.6527 39.9683 52.6383 38.4434 54.5969 38.4434C56.5554 38.4434 57.5282 39.949 58.2428 41.0478C58.9573 42.1467 59.2944 42.5727 59.943 42.5727C60.5915 42.5727 60.9433 42.1313 61.6432 41.0478C62.343 39.9644 63.3305 38.4434 65.289 38.4434H66.4653V40.9206H65.289C64.6386 40.9206 64.2905 41.3601 63.5889 42.4436C62.8872 43.527 61.9015 45.05 59.943 45.05Z" fill="#FF9A18"/>
</g>
<defs>
<clipPath id="clip0_926_439">
<rect width="127" height="47" fill="white"/>
</clipPath>
</defs>
</svg>
