<svg width="21" height="18" viewBox="0 0 21 18" fill="none" xmlns="http://www.w3.org/2000/svg">
<path d="M6.75 0.299011C5.7933 0.424626 4.86113 0.791642 4.05 1.39999L1.85 3.04999C1.15753 3.56934 0.75 4.38441 0.75 5.24999V13.879C0.75 16.092 3.27641 17.3552 5.04677 16.0274C5.56228 15.6408 6.14605 15.3913 6.75 15.2788V0.299011Z" fill="#1E1E1E"/>
<path d="M8.25 15.2788C8.85395 15.3913 9.43772 15.6408 9.95323 16.0274L10.05 16.1C10.8611 16.7083 11.7933 17.0753 12.75 17.201V2.22114C12.1461 2.10871 11.5623 1.8592 11.0468 1.47257L10.95 1.39999C10.1389 0.791642 9.2067 0.424626 8.25 0.299011V15.2788Z" fill="#1E1E1E"/>
<path d="M14.25 2.22114V17.201C15.2067 17.0753 16.1389 16.7083 16.95 16.1L19.15 14.45C19.8425 13.9306 20.25 13.1156 20.25 12.25V3.62096C20.25 1.408 17.7236 0.144793 15.9532 1.47257C15.4377 1.8592 14.8539 2.10871 14.25 2.22114Z" fill="#1E1E1E"/>
</svg>
