<svg width="35" height="35" viewBox="0 0 35 35" fill="none" xmlns="http://www.w3.org/2000/svg">
<path d="M7.98334 1.30685C8.59625 0.699388 9.58556 0.703802 10.193 1.31671C10.8005 1.92962 10.7961 2.91893 10.1832 3.5264L7.24489 6.43858C6.04719 7.62564 5.24437 8.42466 4.70458 9.0968C4.69839 9.10451 4.69225 9.11218 4.68617 9.11981C4.66792 9.1427 4.65014 9.16525 4.63282 9.18746H22.4459C29.0618 9.18746 34.425 14.5507 34.425 21.1666C34.425 27.7825 34.425 31.5833 34.425 33.1458L34.425 33.8749C34.425 33.8749 34.2585 34.9999 32.7793 34.9999C31.3 34.9999 31.2793 33.8749 31.2793 33.8749L31.3 33.1458C31.3 33.1458 31.3 26.0566 31.3 21.1666C31.3 16.2766 27.3359 12.3125 22.4459 12.3125H4.63282C4.65591 12.3421 4.67982 12.3723 4.70457 12.4031C5.24436 13.0752 6.04718 13.8743 7.24489 15.0613L10.1832 17.9735C10.7961 18.581 10.8005 19.5703 10.193 20.1832C9.58556 20.7961 8.59626 20.8005 7.98334 20.1931L4.98101 17.2174C3.86397 16.1103 2.93228 15.187 2.26802 14.3599C1.5713 13.4923 1.04135 12.5806 0.899769 11.4697C0.869315 11.2308 0.85408 10.9904 0.85408 10.75C0.85408 10.5096 0.869311 10.2691 0.899765 10.0302C1.04135 8.91936 1.57131 8.00759 2.26803 7.14004C2.93228 6.31292 3.86392 5.38962 4.98094 4.28258L7.98334 1.30685Z" fill="#1E1E1E"/>
</svg>
