<svg width="17" height="20" viewBox="0 0 17 20" fill="none" xmlns="http://www.w3.org/2000/svg">
<path d="M3.45526 0.250003C3.02244 0.249952 2.62561 0.249906 2.3028 0.293307C1.94732 0.3411 1.57159 0.453547 1.26257 0.76257C0.953547 1.07159 0.8411 1.44732 0.793307 1.8028C0.749906 2.12561 0.749952 2.52244 0.750003 2.95526L0.750006 19C0.750006 19.4142 1.08579 19.75 1.50001 19.75C1.91422 19.75 2.25001 19.4142 2.25001 19L2.25001 12.75H13.6979C15.1074 12.75 16.25 11.6074 16.25 10.1979C16.25 9.35756 15.8363 8.57104 15.1438 8.09494L14.8625 7.90159C13.8795 7.22575 13.8795 5.77426 14.8625 5.09842L15.1438 4.90507C15.8363 4.42897 16.25 3.64245 16.25 2.80207C16.25 1.3926 15.1074 0.250007 13.6979 0.250007L3.45526 0.250003Z" fill="#1E1E1E"/>
</svg>
