<svg width="193" height="166" viewBox="0 0 193 166" fill="none"
    xmlns="http://www.w3.org/2000/svg">
    <g clip-path="url(#clip0_911_9471)">
        <path d="M129.176 163.778C129.176 165.001 142.375 166 158.662 166C174.949 166 188.163 165.001 188.163 163.778C188.163 162.555 174.949 161.555 158.662 161.555C142.375 161.555 129.176 162.54 129.176 163.778Z" fill="#304E2A"/>
        <path d="M102.926 112.471L95.7222 129.862" stroke="#0B2B52" stroke-width="0.98" stroke-miterlimit="10"/>
        <path d="M97.4821 113.605H108.116V111.323H97.4821V113.605Z" fill="#0B2B52"/>
        <path d="M102.926 105.297L99.9431 111.263H110.383C110.383 111.263 104.104 109.339 106.028 106.297L102.926 105.297Z" fill="#6B3E00"/>
        <path d="M89.8907 58.1969C89.8907 58.1969 121.853 69.8453 122.837 80.8075C123.821 91.7698 108.116 107.907 108.116 107.907H101.405L108.116 87.5191L71.3816 69.3829L89.8907 58.1969Z" fill="#609A92"/>
        <path d="M89.8907 58.1969C89.8907 58.1969 106.222 64.1628 115.902 71.6201L84.074 75.7217L71.3816 69.4575L89.8907 58.1969Z" fill="#256B62"/>
        <path d="M139.616 87.5191C139.616 87.5191 97.8549 91.7549 97.4821 128.296" stroke="#C76C1F" stroke-width="2" stroke-linecap="round" stroke-linejoin="round"/>
        <path d="M94.8571 119.213L33.021 125.626V132.711L95.7222 139.556" stroke="#787878" stroke-width="0.7" stroke-miterlimit="10"/>
        <path d="M127.833 129.295C127.833 135.392 129.642 141.353 133.029 146.422C136.417 151.492 141.231 155.444 146.864 157.777C152.498 160.11 158.696 160.721 164.676 159.531C170.657 158.342 176.15 155.406 180.461 151.094C184.773 146.783 187.709 141.29 188.898 135.309C190.088 129.329 189.477 123.131 187.144 117.497C184.811 111.864 180.859 107.05 175.789 103.662C170.72 100.275 164.759 98.4665 158.662 98.4665C150.487 98.4704 142.648 101.72 136.867 107.5C131.087 113.281 127.837 121.12 127.833 129.295V129.295Z" stroke="#006EED" stroke-width="4" stroke-miterlimit="10"/>
        <path d="M130.414 129.295C130.414 134.882 132.07 140.344 135.174 144.989C138.278 149.634 142.69 153.255 147.852 155.393C153.014 157.531 158.693 158.091 164.173 157.001C169.653 155.911 174.686 153.22 178.637 149.27C182.587 145.319 185.278 140.286 186.368 134.806C187.458 129.326 186.898 123.647 184.76 118.485C182.622 113.323 179.001 108.911 174.356 105.807C169.71 102.703 164.249 101.047 158.662 101.047C151.17 101.047 143.985 104.023 138.687 109.32C133.39 114.618 130.414 121.803 130.414 129.295V129.295Z" stroke="#092242" stroke-width="1.91" stroke-miterlimit="10"/>
        <path d="M154.038 129.295C154.038 130.213 154.311 131.11 154.821 131.874C155.332 132.637 156.057 133.231 156.905 133.582C157.754 133.932 158.687 134.023 159.587 133.843C160.488 133.663 161.314 133.22 161.962 132.57C162.61 131.919 163.051 131.092 163.228 130.191C163.405 129.29 163.311 128.357 162.958 127.51C162.605 126.662 162.008 125.939 161.243 125.431C160.478 124.923 159.58 124.654 158.662 124.657C157.434 124.661 156.258 125.151 155.392 126.02C154.525 126.89 154.038 128.067 154.038 129.295V129.295Z" fill="#F7AC2D"/>
        <path d="M4.36987 163.778C4.36987 165.001 17.5694 166 33.8562 166C50.1429 166 63.3573 165.001 63.3573 163.778C63.3573 162.555 50.1429 161.555 33.8562 161.555C17.5694 161.555 4.36987 162.54 4.36987 163.778Z" fill="#304E2A"/>
        <path d="M2.98291 129.295C2.98291 135.392 4.79097 141.353 8.17846 146.422C11.5659 151.492 16.3807 155.444 22.0139 157.777C27.6471 160.11 33.8457 160.721 39.8258 159.531C45.806 158.342 51.2991 155.406 55.6106 151.094C59.922 146.783 62.8581 141.29 64.0477 135.309C65.2372 129.329 64.6267 123.131 62.2934 117.497C59.96 111.864 56.0086 107.05 50.9389 103.662C45.8692 100.275 39.9088 98.4665 33.8115 98.4665C25.6364 98.4704 17.7973 101.72 12.0167 107.5C6.2361 113.281 2.98686 121.12 2.98291 129.295V129.295Z" stroke="#006EED" stroke-width="4" stroke-miterlimit="10"/>
        <path d="M5.56323 129.295C5.56323 134.882 7.21995 140.344 10.3239 144.989C13.4279 149.634 17.8398 153.255 23.0015 155.393C28.1632 157.531 33.8429 158.091 39.3225 157.001C44.8022 155.911 49.8356 153.22 53.7862 149.27C57.7368 145.319 60.4272 140.286 61.5172 134.806C62.6072 129.326 62.0477 123.647 59.9097 118.485C57.7716 113.323 54.151 108.911 49.5055 105.807C44.8601 102.703 39.3986 101.047 33.8116 101.047C30.1019 101.047 26.4287 101.777 23.0015 103.197C19.5742 104.617 16.4601 106.697 13.837 109.32C11.2139 111.944 9.13311 115.058 7.71349 118.485C6.29388 121.912 5.56323 125.585 5.56323 129.295V129.295Z" stroke="#092242" stroke-width="1.91" stroke-miterlimit="10"/>
        <path d="M29.1731 129.295C29.1731 130.212 29.4451 131.109 29.9548 131.872C30.4645 132.635 31.1889 133.229 32.0365 133.58C32.8841 133.932 33.8167 134.023 34.7165 133.844C35.6162 133.665 36.4427 133.224 37.0914 132.575C37.7401 131.926 38.1819 131.1 38.3608 130.2C38.5398 129.3 38.448 128.368 38.0969 127.52C37.7459 126.672 37.1513 125.948 36.3885 125.438C35.6258 124.929 34.7289 124.657 33.8115 124.657C32.5825 124.661 31.4051 125.151 30.536 126.02C29.667 126.889 29.177 128.066 29.1731 129.295V129.295Z" fill="#F7AC2D"/>
        <path d="M76.2883 74.3943L93.5595 129.295" stroke="#C76C1F" stroke-width="2" stroke-linecap="round" stroke-linejoin="round"/>
        <path d="M133.978 66.4L146.268 112.427C147.758 118.01 150.967 122.982 155.44 126.64L158.662 129.295" stroke="#C76C1F" stroke-width="2" stroke-linecap="round" stroke-linejoin="round"/>
        <path d="M147.759 64.5953H116.558" stroke="#C76C1F" stroke-width="2" stroke-linecap="round" stroke-linejoin="round"/>
        <path d="M69.2487 75.7217H83.4176C83.7491 75.7236 84.0778 75.6598 84.3845 75.5338C84.6912 75.4078 84.9699 75.2223 85.2043 74.9878C85.4388 74.7534 85.6244 74.4747 85.7503 74.168C85.8763 73.8613 85.9401 73.5326 85.9381 73.2011V73.2011C85.9381 72.5326 85.6726 71.8915 85.1999 71.4188C84.7272 70.9461 84.0861 70.6805 83.4176 70.6805H69.2487C68.5802 70.6805 67.939 70.9461 67.4663 71.4188C66.9936 71.8915 66.7281 72.5326 66.7281 73.2011V73.2011C66.7261 73.5326 66.7899 73.8613 66.9159 74.168C67.0418 74.4747 67.2274 74.7534 67.4619 74.9878C67.6963 75.2223 67.975 75.4078 68.2817 75.5338C68.5884 75.6598 68.9171 75.7236 69.2487 75.7217V75.7217Z" fill="#C76C1F"/>
        <path d="M137.334 78.9879H77.7202" stroke="#C76C1F" stroke-width="2" stroke-linecap="round" stroke-linejoin="round"/>
        <path d="M78.7195 82.1051C78.7195 82.1051 33.8115 86.5795 33.8115 129.295H89.5028" stroke="#C76C1F" stroke-width="2" stroke-linecap="round" stroke-linejoin="round"/>
        <path d="M93.6788 135.112C99.9188 133.966 104.048 127.978 102.902 121.738C101.756 115.498 95.7683 111.369 89.5284 112.515C83.2884 113.661 79.1591 119.649 80.3052 125.889C81.4513 132.128 87.4389 136.258 93.6788 135.112Z" fill="#F7AC2D"/>
        <path d="M84.1931 147.834H94.8273V145.552H84.1931V147.834Z" fill="#0B2B52"/>
        <path d="M95.7223 129.295L88.5334 146.686" stroke="#0B2B52" stroke-width="0.98" stroke-miterlimit="10"/>
        <path d="M169.699 90.4126H146.044V71.2025H180.542V79.5547C180.544 80.9799 180.265 82.3915 179.721 83.7087C179.177 85.026 178.378 86.223 177.371 87.2315C176.364 88.2399 175.168 89.04 173.852 89.5858C172.535 90.1316 171.124 90.4126 169.699 90.4126V90.4126Z" fill="#6B3E00"/>
        <path d="M136.454 75.7366H164.166" stroke="#C76C1F" stroke-width="2" stroke-linecap="round" stroke-linejoin="round"/>
        <path d="M85.4312 139.288L86.4305 145.552L97.4822 145.328C97.4822 145.328 91.5164 144.493 90.711 142.42C90.2841 141.323 90.0325 140.165 89.9653 138.99L85.4312 139.288Z" fill="#6B3E00"/>
        <path d="M63.3127 60.807C63.3127 60.807 61.8212 64.9235 64.6401 75.7217C67.4589 86.5199 84.1932 140.824 84.1932 140.824H92.1278L84.9091 59.2708L63.3127 60.807Z" fill="#609A92"/>
        <path d="M98.2428 12.3792L103.403 16.0034L102.464 17.1817C102.464 17.1817 106.013 19.9707 105.089 22.4167C104.164 24.8627 102.21 23.7739 100.778 24.9522C99.3465 26.1305 97.7953 30.4408 97.7953 30.4408L89.6072 29.7696L90.2932 24.281C90.2932 24.281 87.9218 20.2243 88.5184 17.9423C89.115 15.6604 98.2428 12.3792 98.2428 12.3792Z" fill="#E6B78C"/>
        <path d="M101.509 14.6611C101.509 14.6611 103.731 13.0503 100.525 11.365C98.5548 10.4145 96.4902 9.67461 94.365 9.15759C92.6797 8.48643 91.2478 5.44384 87.2805 9.15759C83.3133 12.8713 83.7309 14.2286 83.7309 14.2286C83.7309 14.2286 76.8105 14.3926 77.5711 18.1959C78.3317 21.9991 81.2848 22.0737 81.2848 22.0737C81.2848 22.0737 78.1528 23.7739 80.0917 25.3698C82.0306 26.9657 86.9375 25.9664 86.9375 25.9664C86.9375 25.9664 84.3125 28.0694 86.2663 27.9948C87.3118 27.892 88.3126 27.5189 89.1703 26.9122C90.028 26.3055 90.7131 25.4862 91.1583 24.5346C91.5759 22.9238 89.8011 19.5531 91.6655 18.703C93.5298 17.8528 97.497 16.3465 98.2428 12.3792L101.509 14.6611Z" fill="#0B2B52"/>
        <path d="M71.9483 24.3556L43.2376 6.74144C43.2376 6.74144 40.8065 -0.536909 40.1503 0.0298475C39.4941 0.596604 40.1503 4.41473 40.1503 4.41473L38.3904 4.22086C38.3904 4.22086 39.9713 9.44099 41.8357 9.06812L68.7715 30.4408L71.9483 24.3556Z" fill="#E6B78C"/>
        <path d="M111.174 28.0694L139.884 10.4552C139.884 10.4552 142.315 3.17682 142.972 3.74358C143.628 4.31034 142.972 8.12849 142.972 8.12849L144.732 7.93459C144.732 7.93459 143.151 13.1547 141.286 12.7819L114.351 34.1545L111.174 28.0694Z" fill="#E6B78C"/>
        <path d="M99.8238 30.4408C94.094 30.7558 88.3504 30.1618 82.8062 28.6809C78.9028 27.0405 75.1199 25.1267 71.486 22.9536L67.2651 30.411L76.3333 38.2113C76.3333 38.2113 69.5023 54.3788 65.5201 56.7353C61.5379 59.0918 59.1814 61.2097 61.9257 62.0748C64.67 62.9398 82.4483 62.0748 88.3992 62.0748C94.3502 62.0748 96.2294 55.2438 99.8238 50.2773C103.418 45.3107 108.907 37.5998 115.246 34.9898L112.128 27.965C108.133 29.252 104.006 30.0826 99.8238 30.4408V30.4408Z" fill="#ED0F51"/>
    </g>
    <defs>
        <clipPath id="clip0_911_9471">
            <rect width="192.473" height="166" fill="white"/>
        </clipPath>
    </defs>
</svg>
