<svg width="180" height="166" viewBox="0 0 180 166" fill="none"
    xmlns="http://www.w3.org/2000/svg">
    <g clip-path="url(#clip0_911_9505)">
        <path d="M146.9 166C163.584 166 177.108 164.981 177.108 163.723C177.108 162.466 163.584 161.447 146.9 161.447C130.217 161.447 116.692 162.466 116.692 163.723C116.692 164.981 130.217 166 146.9 166Z" fill="#304E2A"/>
        <path d="M32.4697 166C49.1532 166 62.6779 164.981 62.6779 163.723C62.6779 162.466 49.1532 161.447 32.4697 161.447C15.7862 161.447 2.26147 162.466 2.26147 163.723C2.26147 164.981 15.7862 166 32.4697 166Z" fill="#304E2A"/>
        <path d="M146.9 159.781C163.145 159.781 176.314 146.612 176.314 130.367C176.314 114.123 163.145 100.954 146.9 100.954C130.656 100.954 117.487 114.123 117.487 130.367C117.487 146.612 130.656 159.781 146.9 159.781Z" stroke="#3CAAB0" stroke-width="4" stroke-miterlimit="10"/>
        <path d="M146.9 157.214C161.727 157.214 173.747 145.194 173.747 130.367C173.747 115.54 161.727 103.521 146.9 103.521C132.073 103.521 120.054 115.54 120.054 130.367C120.054 145.194 132.073 157.214 146.9 157.214Z" stroke="#092242" stroke-width="2" stroke-miterlimit="10"/>
        <path d="M152.875 130.383C152.875 131.568 152.523 132.727 151.864 133.712C151.205 134.697 150.269 135.465 149.174 135.918C148.078 136.371 146.873 136.489 145.711 136.256C144.548 136.024 143.481 135.452 142.644 134.613C141.807 133.773 141.238 132.705 141.009 131.542C140.779 130.379 140.9 129.174 141.356 128.08C141.811 126.986 142.581 126.051 143.568 125.395C144.555 124.739 145.715 124.39 146.9 124.393C147.686 124.393 148.464 124.548 149.19 124.849C149.916 125.15 150.575 125.592 151.13 126.148C151.685 126.705 152.125 127.365 152.424 128.092C152.724 128.818 152.877 129.597 152.875 130.383Z" fill="#092242"/>
        <path d="M32.4696 159.781C48.7143 159.781 61.8832 146.612 61.8832 130.367C61.8832 114.123 48.7143 100.954 32.4696 100.954C16.2249 100.954 3.05591 114.123 3.05591 130.367C3.05591 146.612 16.2249 159.781 32.4696 159.781Z" stroke="#3CAAB0" stroke-width="4" stroke-miterlimit="10"/>
        <path d="M32.4696 157.214C47.2966 157.214 59.3162 145.194 59.3162 130.367C59.3162 115.54 47.2966 103.521 32.4696 103.521C17.6426 103.521 5.62292 115.54 5.62292 130.367C5.62292 145.194 17.6426 157.214 32.4696 157.214Z" stroke="#092242" stroke-width="2" stroke-miterlimit="10"/>
        <path d="M38.4594 130.383C38.4594 131.567 38.1081 132.725 37.4499 133.71C36.7918 134.695 35.8563 135.463 34.7618 135.916C33.6674 136.37 32.463 136.488 31.3011 136.257C30.1393 136.026 29.072 135.456 28.2343 134.618C27.3966 133.78 26.8262 132.713 26.5951 131.551C26.364 130.389 26.4826 129.185 26.9359 128.091C27.3893 126.996 28.157 126.061 29.142 125.402C30.127 124.744 31.285 124.393 32.4697 124.393C34.0582 124.393 35.5817 125.024 36.705 126.147C37.8283 127.271 38.4594 128.794 38.4594 130.383Z" fill="#092242"/>
        <path d="M32.4696 126.303L81.7012 122.498" stroke="#092242" stroke-miterlimit="10"/>
        <path d="M83.8251 138.527C88.3314 138.527 91.9845 134.874 91.9845 130.367C91.9845 125.861 88.3314 122.208 83.8251 122.208C79.3187 122.208 75.6656 125.861 75.6656 130.367C75.6656 134.874 79.3187 138.527 83.8251 138.527Z" fill="#092242"/>
        <path d="M66.1769 68.7745C71.7297 68.7745 76.2311 67.5226 76.2311 65.9783C76.2311 64.434 71.7297 63.1821 66.1769 63.1821C60.6242 63.1821 56.1228 64.434 56.1228 65.9783C56.1228 67.5226 60.6242 68.7745 66.1769 68.7745Z" fill="#6B3E00"/>
        <path d="M79.1037 49.7817C79.1037 49.7817 106.485 65.0615 106.745 72.9459C107.005 80.8303 81.7165 107.585 81.7165 107.585L78.2174 103.169L92.4735 75.9254L68.637 60.2636L79.1037 49.7817Z" fill="#FF8A2A"/>
        <path d="M146.9 130.367L132.552 58.2772" stroke="#004AA1" stroke-width="2" stroke-linecap="round" stroke-linejoin="round"/>
        <path d="M68.6217 76.5061H136.342" stroke="#004AA1" stroke-width="2" stroke-linecap="round" stroke-linejoin="round"/>
        <path d="M80.5247 118.312C80.5247 118.312 99.9911 84.9253 137.855 84.9253" stroke="#004AA1" stroke-width="2" stroke-linecap="round" stroke-linejoin="round"/>
        <path d="M82.9083 130.383H32.4849C32.4849 130.383 34.731 85.6129 67.277 71.7082" stroke="#004AA1" stroke-width="2" stroke-linecap="round" stroke-linejoin="round"/>
        <path d="M66.1769 67.9188L84.7113 133.041" stroke="#004AA1" stroke-width="2" stroke-linecap="round" stroke-linejoin="round"/>
        <path d="M129.787 57.8036H146.213C152.126 57.8036 153.944 64.1905 150.598 67.9188C147.252 71.6471 141.033 70.6845 141.033 70.6845" stroke="#004AA1" stroke-width="2" stroke-linecap="round" stroke-linejoin="round"/>
        <path d="M31.8584 134.707L84.7113 139.031" stroke="#092242" stroke-miterlimit="10"/>
        <path d="M107.249 30.2999L116.035 36.7938C116.035 36.7938 143.416 51.875 145.326 54.8698C147.236 57.8647 146.595 61.486 145.326 61.3638C144.058 61.2415 139.719 55.5116 139.719 55.5116L102.482 35.7701L107.249 30.2999Z" fill="#E6B78C"/>
        <path d="M58.3689 41.8056C54.5336 49.7817 79.7606 126.303 79.7606 126.303L87.4005 124.393L75.6809 49.0177L58.3689 41.8056Z" fill="#FF8A2A"/>
        <path d="M79.9287 124.393C79.9287 124.393 83.275 141.843 84.7113 142.607C86.1476 143.371 98.677 135.563 98.0047 134.707C97.3324 133.851 91.8928 137.381 89.7536 135.975C87.6145 134.569 85.9337 122.498 85.9337 122.498L79.9287 124.393Z" fill="#6B3E00"/>
        <path d="M106.699 4.82842C106.699 4.82842 110.137 16.7925 108.472 18.84C106.806 20.8875 103.765 19.3443 101.855 19.4665C101.218 19.5829 100.615 19.8375 100.087 20.2124C99.5587 20.5872 99.1193 21.0733 98.7994 21.6362L93.3292 19.7263L96.1254 14.6381C96.1254 14.6381 94.3377 11.4446 95.7434 10.9404C96.2107 10.8083 96.7002 10.774 97.1814 10.8397C97.6625 10.9055 98.1249 11.0698 98.5396 11.3223L98.7994 5.47017L106.699 4.82842Z" fill="#E6B78C"/>
        <path d="M93.3751 7.05928C93.3751 7.05928 92.8556 14.4394 95.4684 16.9912C98.0813 19.5429 101.168 6.29528 101.168 6.29528L93.3751 7.05928Z" fill="#092242"/>
        <path d="M56.6729 44.342C56.6729 44.342 72.5027 54.2434 79.5926 52.6695C86.6824 51.0957 86.6366 40.9041 97.363 35.8617L107.891 41.8209L115.974 34.5324C115.974 34.5324 103.75 21.5598 94.5821 17.6024C85.4142 13.6449 80.9219 19.1303 71.8916 26.7703C66.0148 31.88 60.8911 37.796 56.6729 44.342V44.342Z" fill="#004AA1"/>
        <path d="M93.6347 7.65519H114.507C114.507 7.65519 110.779 2.03222 105.339 0.595921C100.205 -0.763983 90.3343 -0.168074 92.0151 6.41753C92.1121 6.77278 92.3232 7.08631 92.6159 7.30992C92.9085 7.53353 93.2664 7.65483 93.6347 7.65519V7.65519Z" fill="#256B62"/>
    </g>
    <defs>
        <clipPath id="clip0_911_9505">
            <rect width="179.37" height="166" fill="white"/>
        </clipPath>
    </defs>
</svg>
