<svg width="185" height="166" viewBox="0 0 185 166" fill="none" xmlns="http://www.w3.org/2000/svg">
<g clip-path="url(#clip0_902_2091)">
<path d="M185 163.118C185 164.723 167.963 166 146.941 166C125.919 166 108.863 164.723 108.863 163.118C108.863 161.512 125.919 160.255 146.941 160.255C167.963 160.255 185 161.532 185 163.118Z" fill="#304E2A"/>
<path d="M89.5354 163.118C89.5354 164.723 72.4985 166 51.4766 166C30.4548 166 13.3986 164.723 13.3986 163.118C13.3986 161.512 30.4548 160.255 51.4766 160.255C72.4985 160.255 89.5354 161.532 89.5354 163.118Z" fill="#304E2A"/>
<path d="M22.9854 133.736C22.9854 139.009 24.5417 144.163 27.4574 148.547C30.3732 152.93 34.5174 156.347 39.3658 158.364C44.2142 160.38 49.549 160.907 54.6953 159.877C59.8417 158.847 64.5684 156.306 68.2776 152.577C71.9868 148.847 74.5117 144.096 75.5331 138.924C76.5545 133.753 76.0265 128.393 74.0157 123.523C72.005 118.652 68.6019 114.491 64.2369 111.564C59.8719 108.638 54.7412 107.078 49.4937 107.082C46.0103 107.079 42.5605 107.767 39.342 109.106C36.1234 110.445 33.1993 112.408 30.737 114.884C28.2748 117.36 26.3226 120.3 24.9925 123.534C23.6624 126.769 22.9803 130.236 22.9854 133.736V133.736Z" stroke="#1E1E1E" stroke-width="1.89" stroke-miterlimit="10"/>
<path d="M25.3917 133.736C25.3917 138.522 26.8042 143.201 29.4504 147.18C32.0967 151.159 35.8578 154.261 40.2584 156.092C44.6589 157.924 49.5012 158.403 54.1727 157.469C58.8443 156.535 63.1355 154.231 66.5035 150.847C69.8715 147.463 72.1652 143.151 73.0944 138.457C74.0237 133.763 73.5468 128.898 71.724 124.476C69.9012 120.054 66.8145 116.275 62.8541 113.616C58.8937 110.958 54.2376 109.538 49.4744 109.538C43.0873 109.538 36.9618 112.088 32.4454 116.626C27.929 121.164 25.3917 127.319 25.3917 133.736V133.736Z" stroke="#FFFC9C" stroke-width="1.03" stroke-miterlimit="10"/>
<path d="M47.7419 64.2568L39.1368 45.3976C39.1368 45.3976 37.0578 43.1731 30.32 45.3976C23.5822 47.622 23.2549 56.481 16.3632 55.8234C9.47139 55.1657 5.44797 50.1946 0 55.8234C0 55.8234 4.15818 53.715 7.52706 58.4927C10.8959 63.2704 14.0338 68.5703 22.9277 66.7908C31.8215 65.0112 35.3444 56.7131 47.7419 64.2568Z" fill="#FFFC9C"/>
<path d="M69.5146 111.956L38.0973 43.0958" stroke="#1E1E1E" stroke-miterlimit="10"/>
<path d="M88.5344 124.529L49.4938 129.848V137.334L89.5354 143.059" stroke="#4D4D4D" stroke-width="0.58" stroke-miterlimit="10"/>
<path d="M98.0827 115.302L90.4979 133.736" stroke="#1E1E1E" stroke-width="0.8" stroke-miterlimit="10"/>
<path d="M92.346 116.521H103.55V114.103H92.346V116.521Z" fill="#1E1E1E"/>
<path d="M97.948 70.1758C97.948 70.1758 108.767 75.1662 110.519 82.4198C112.271 89.6733 100.066 111.163 100.066 111.163C100.066 111.163 109.248 113.368 108.921 113.852C108.594 114.335 95.1181 113.852 95.1181 113.852L100.258 86.1336L87.6681 80.3308L97.948 70.1758Z" fill="#E6B78C"/>
<path d="M115.524 133.736C115.524 139.008 117.08 144.161 119.995 148.545C122.91 152.928 127.053 156.344 131.9 158.362C136.747 160.379 142.081 160.907 147.227 159.878C152.373 158.85 157.099 156.311 160.809 152.584C164.519 148.856 167.046 144.107 168.069 138.936C169.093 133.766 168.568 128.406 166.56 123.536C164.552 118.666 161.152 114.503 156.789 111.574C152.427 108.645 147.298 107.082 142.052 107.082C138.567 107.079 135.116 107.767 131.897 109.106C128.677 110.444 125.752 112.407 123.288 114.883C120.824 117.359 118.87 120.298 117.538 123.533C116.206 126.768 115.521 130.235 115.524 133.736V133.736Z" stroke="#1E1E1E" stroke-width="1.89" stroke-miterlimit="10"/>
<path d="M117.969 133.736C117.969 138.522 119.381 143.201 122.027 147.18C124.674 151.159 128.435 154.261 132.835 156.092C137.236 157.924 142.078 158.403 146.75 157.469C151.421 156.535 155.713 154.231 159.081 150.847C162.449 147.463 164.742 143.151 165.671 138.457C166.601 133.763 166.124 128.898 164.301 124.476C162.478 120.054 159.392 116.275 155.431 113.616C151.471 110.958 146.815 109.538 142.051 109.538C135.664 109.538 129.539 112.088 125.022 116.626C120.506 121.164 117.969 127.319 117.969 133.736V133.736Z" stroke="#FFFC9C" stroke-width="1.03" stroke-miterlimit="10"/>
<path d="M137.162 133.736C137.162 134.708 137.449 135.658 137.986 136.466C138.523 137.274 139.287 137.903 140.18 138.275C141.074 138.647 142.057 138.744 143.006 138.555C143.954 138.365 144.825 137.897 145.509 137.21C146.193 136.523 146.659 135.648 146.847 134.695C147.036 133.742 146.939 132.754 146.569 131.856C146.199 130.958 145.572 130.191 144.768 129.651C143.964 129.111 143.019 128.823 142.052 128.823C140.755 128.823 139.511 129.341 138.594 130.262C137.677 131.184 137.162 132.433 137.162 133.736Z" fill="#FFFC9C"/>
<path d="M89.5353 132.324L77.3303 86.1335" stroke="#CBD31C" stroke-width="2" stroke-linecap="round" stroke-linejoin="round"/>
<path d="M142.052 132.324L129.827 86.1335V77.7968" stroke="#CBD31C" stroke-width="2" stroke-linecap="round" stroke-linejoin="round"/>
<path d="M44.6426 133.736C44.6426 134.709 44.9299 135.659 45.468 136.468C46.0061 137.276 46.771 137.906 47.6656 138.277C48.5601 138.648 49.5443 138.745 50.4933 138.553C51.4423 138.362 52.3136 137.892 52.9966 137.203C53.6797 136.514 54.1439 135.637 54.3304 134.683C54.5168 133.728 54.4173 132.74 54.0442 131.843C53.6712 130.945 53.0415 130.179 52.2348 129.642C51.4282 129.104 50.4809 128.819 49.513 128.823C48.2195 128.828 46.9807 129.348 46.0679 130.269C45.1551 131.19 44.6426 132.437 44.6426 133.736Z" fill="#FFFC9C"/>
<path d="M110.538 77.7968H134.467" stroke="#CBD31C" stroke-width="2" stroke-linecap="round" stroke-linejoin="round"/>
<path d="M132.696 96.9268L90.2092 134.549L49.4938 133.736L80.8918 99.5961L130.751 89.6345" stroke="#CBD31C" stroke-width="2" stroke-linecap="round" stroke-linejoin="round"/>
<path d="M78.3314 153.466H89.5354V151.048H78.3314V153.466Z" fill="#1E1E1E"/>
<path d="M79.833 133.736C79.833 135.856 80.4585 137.927 81.6304 139.69C82.8023 141.452 84.4679 142.825 86.4167 143.636C88.3654 144.447 90.5098 144.66 92.5786 144.246C94.6474 143.833 96.5477 142.812 98.0392 141.313C99.5307 139.815 100.546 137.905 100.958 135.827C101.369 133.748 101.158 131.594 100.351 129.635C99.5439 127.677 98.1769 126.004 96.4231 124.826C94.6692 123.649 92.6073 123.02 90.498 123.02C89.0967 123.018 87.7087 123.293 86.4137 123.831C85.1186 124.368 83.9419 125.158 82.9511 126.153C81.9602 127.149 81.1747 128.331 80.6397 129.632C80.1046 130.934 79.8305 132.328 79.833 133.736Z" fill="#FFFC9C"/>
<path d="M90.4979 133.852L82.9131 152.267" stroke="#1E1E1E" stroke-width="0.8" stroke-miterlimit="10"/>
<path d="M80.8533 85.0116L86.6285 146.735C86.6285 146.735 93.8475 148.804 94.2133 150.603C94.5791 152.402 80.4875 150.797 79.756 150.139C79.0244 149.481 67.782 88.7254 67.782 88.7254L80.8533 85.0116Z" fill="#E6B78C"/>
<path d="M82.9132 58.4927L101.875 71.994L92.3845 85.0117L69.4954 77.7968L82.9132 58.4927Z" fill="#995900"/>
<path d="M86.5516 83.1741L98.9491 69.9243L82.9132 58.4927L69.4954 77.7968L86.5516 83.1741Z" fill="#6B3E00"/>
<path d="M104.994 45.3976L121.241 73.3286C121.241 73.3286 127.844 75.7465 127.729 77.7968C127.613 79.8471 121.357 77.7968 121.357 77.7968C121.357 77.7968 117.257 76.9458 116.371 74.5279C115.485 72.1101 98.5448 49.8658 98.5448 49.8658L104.994 45.3976Z" fill="#E6B78C"/>
<path d="M113.175 10.8707L114.85 17.6407L113.175 18.2596C113.175 18.2596 113.541 22.96 109.922 24.2946C106.303 25.6293 104.147 22.96 102.106 24.2946C100.872 25.1192 99.6831 26.0102 98.5447 26.9639L91.3257 22.6118L102.53 10.8707H113.175Z" fill="#E6B78C"/>
<path d="M109.21 9.07178L103.665 16.0739C103.665 16.0739 101.856 14.3911 101.259 14.8746C100.662 15.3582 98.9683 18.1243 100.662 18.9173H94.8871V9.07178H109.21Z" fill="#1E1E1E"/>
<path d="M60.7169 58.4927H82.9131L85.2617 89.6346L63.3543 92.9036C63.3543 92.9036 65.0484 82.4197 60.7169 75.6884C56.3855 68.9571 60.7169 58.4927 60.7169 58.4927Z" fill="#995900"/>
<path d="M98.3715 22.7859C103.492 28.0858 107.631 46.5969 107.631 46.5969L98.3715 51.5679L93.5588 42.2447C93.5588 42.2447 86.7055 51.8001 86.7055 54.7015C86.7055 57.6029 84.0489 59.0536 80.5645 59.3051C77.0801 59.5565 57.0978 60.2142 54.4605 58.4927C51.8231 56.7712 60.717 50.1173 62.6421 46.887C64.5671 43.6568 62.3918 42.1674 66.1264 39.2659C69.8611 36.3645 73.1145 35.0299 77.3111 30.3296C81.5078 25.6293 89.4776 13.598 98.3715 22.7859Z" fill="#F7AC2D"/>
<path d="M92.115 12.3214H122.55L113.926 10.3871C113.926 10.3871 111.597 0 102.376 0C93.1545 0 92.115 12.3214 92.115 12.3214Z" fill="#6B3E00"/>
</g>
<defs>
<clipPath id="clip0_902_2091">
<rect width="185" height="166" fill="white"/>
</clipPath>
</defs>
</svg>
