<svg width="211" height="166" viewBox="0 0 211 166" fill="none"
    xmlns="http://www.w3.org/2000/svg">
    <g clip-path="url(#clip0_903_8997)">
        <path d="M6.51099 163.429C6.51099 164.861 21.7721 166 40.5817 166C59.3912 166 74.6352 164.861 74.6352 163.429C74.6352 161.997 59.3912 160.876 40.5817 160.876C21.7721 160.876 6.51099 162.014 6.51099 163.429Z" fill="#304E2A"/>
        <path d="M136.197 163.429C136.197 164.861 151.441 166 170.25 166C189.06 166 204.321 164.861 204.321 163.429C204.321 161.997 189.06 160.876 170.25 160.876C151.441 160.876 136.197 162.014 136.197 163.429Z" fill="#304E2A"/>
        <path d="M1.72253 121.951C1.72253 129.649 4.00162 137.175 8.27153 143.576C12.5414 149.977 18.6104 154.966 25.711 157.913C32.8116 160.859 40.6249 161.63 48.1629 160.128C55.7008 158.626 62.6249 154.918 68.0594 149.475C73.494 144.031 77.195 137.095 78.6944 129.545C80.1938 121.994 79.4242 114.167 76.483 107.055C73.5419 99.9423 68.5612 93.863 62.1709 89.5859C55.7805 85.3088 48.2674 83.0259 40.5818 83.0259C30.2757 83.0259 20.3917 87.1269 13.1041 94.4267C5.81661 101.727 1.72253 111.627 1.72253 121.951V121.951Z" stroke="#1E1E1E" stroke-width="2" stroke-miterlimit="10"/>
        <path d="M4.97803 121.951C4.97803 129.004 7.06615 135.9 10.9783 141.765C14.8905 147.629 20.4511 152.201 26.9568 154.9C33.4626 157.599 40.6213 158.305 47.5277 156.929C54.4342 155.553 60.7782 152.157 65.7574 147.169C70.7367 142.181 74.1276 135.827 75.5014 128.908C76.8752 121.99 76.1702 114.819 73.4754 108.303C70.7806 101.786 66.2172 96.2161 60.3622 92.2973C54.5071 88.3785 47.6235 86.2869 40.5818 86.2869C31.1391 86.2869 22.0831 90.0443 15.4061 96.7326C8.72908 103.421 4.97803 112.492 4.97803 121.951V121.951Z" stroke="#979797" stroke-width="2.09" stroke-miterlimit="10"/>
        <path d="M35.2249 121.951C35.2249 123.012 35.539 124.049 36.1276 124.932C36.7162 125.814 37.5529 126.502 38.5318 126.908C39.5106 127.314 40.5877 127.421 41.6269 127.214C42.666 127.007 43.6205 126.495 44.3697 125.745C45.1188 124.995 45.629 124.038 45.8357 122.998C46.0424 121.957 45.9364 120.878 45.531 119.897C45.1255 118.917 44.4389 118.079 43.5579 117.489C42.677 116.899 41.6413 116.585 40.5818 116.585C39.8783 116.585 39.1817 116.724 38.5318 116.993C37.8819 117.263 37.2913 117.658 36.7938 118.156C36.2964 118.655 35.9019 119.246 35.6327 119.897C35.3635 120.548 35.2249 121.246 35.2249 121.951V121.951Z" fill="#8A0830"/>
        <path d="M131.391 121.951C131.391 129.649 133.67 137.175 137.94 143.576C142.21 149.977 148.279 154.966 155.38 157.913C162.48 160.859 170.293 161.63 177.831 160.128C185.369 158.626 192.293 154.918 197.728 149.475C203.163 144.031 206.863 137.095 208.363 129.545C209.862 121.994 209.093 114.167 206.152 107.055C203.21 99.9423 198.23 93.863 191.839 89.5859C185.449 85.3088 177.936 83.0259 170.25 83.0259C159.944 83.0259 150.06 87.1269 142.773 94.4267C135.485 101.727 131.391 111.627 131.391 121.951V121.951Z" stroke="#1E1E1E" stroke-width="2" stroke-miterlimit="10"/>
        <path d="M134.647 121.951C134.647 129.004 136.735 135.9 140.647 141.765C144.559 147.629 150.12 152.201 156.625 154.9C163.131 157.599 170.29 158.305 177.196 156.929C184.103 155.553 190.447 152.157 195.426 147.169C200.405 142.181 203.796 135.827 205.17 128.908C206.544 121.99 205.839 114.819 203.144 108.303C200.449 101.786 195.886 96.2161 190.031 92.2973C184.176 88.3785 177.292 86.2869 170.25 86.2869C160.809 86.2914 151.756 90.0504 145.08 96.7376C138.404 103.425 134.651 112.493 134.647 121.951V121.951Z" stroke="#979797" stroke-width="2.09" stroke-miterlimit="10"/>
        <path d="M164.825 121.951C164.825 123.012 165.139 124.049 165.727 124.932C166.316 125.814 167.153 126.502 168.132 126.908C169.11 127.314 170.187 127.421 171.227 127.214C172.266 127.007 173.22 126.495 173.969 125.745C174.719 124.995 175.229 124.038 175.435 122.998C175.642 121.957 175.536 120.878 175.131 119.897C174.725 118.917 174.039 118.079 173.158 117.489C172.277 116.899 171.241 116.585 170.181 116.585C168.761 116.585 167.398 117.15 166.394 118.156C165.389 119.163 164.825 120.528 164.825 121.951V121.951Z" fill="#8A0830"/>
        <path d="M164.825 68.2738C171.99 68.2738 172.214 55.109 162.516 55.109H148.306L170.181 121.951" stroke="#ED0F51" stroke-width="2" stroke-linecap="round" stroke-linejoin="round"/>
        <path d="M97.6304 121.951L83.5577 64.1673" stroke="#ED0F51" stroke-width="2" stroke-linecap="round" stroke-linejoin="round"/>
        <path d="M84.5051 68.015L40.5818 121.933L97.6305 122.693" stroke="#ED0F51" stroke-width="2" stroke-linecap="round" stroke-linejoin="round"/>
        <path d="M92.618 50.5367C92.618 50.5367 127.636 61.5447 128.428 68.015C129.221 74.4852 110.98 97.7435 110.98 97.7435L117.163 100.504H104.538L114.666 74.0883L79.4237 68.015L92.618 50.5367Z" fill="#E6B78C"/>
        <path d="M88.7424 48.8631C88.7424 48.8631 103.59 54.0393 113.391 58.163L105.623 72.5355L79.4237 68.015L88.7424 48.8631Z" fill="#092242"/>
        <path d="M85.3491 69.5506H153.112" stroke="#ED0F51" stroke-width="2" stroke-linecap="round" stroke-linejoin="round"/>
        <path d="M117.163 100.504H104.451L105.416 97.9678L110.98 97.7435L117.163 100.504Z" fill="#0B2B52"/>
        <path d="M106.984 101.815L98.6812 121.951" stroke="#1E1E1E" stroke-width="0.98" stroke-miterlimit="10"/>
        <path d="M100.714 103.144H112.995V100.504H100.714V103.144Z" fill="#1E1E1E"/>
        <path d="M154.266 75.6584L96.0114 115.049" stroke="#ED0F51" stroke-width="2" stroke-linecap="round" stroke-linejoin="round"/>
        <path d="M85.3664 143.518H97.6477V140.878H85.3664V143.518Z" fill="#1E1E1E"/>
        <path d="M96.5453 111.874L40.5818 117.689V125.885L97.6305 132.131" stroke="#4D4D4D" stroke-width="0.7" stroke-miterlimit="10"/>
        <path d="M87.0027 121.951C87.0027 124.264 87.6876 126.526 88.9709 128.45C90.2541 130.374 92.0781 131.873 94.212 132.758C96.346 133.644 98.6941 133.876 100.959 133.424C103.225 132.973 105.306 131.859 106.939 130.223C108.572 128.587 109.684 126.502 110.135 124.233C110.586 121.964 110.354 119.612 109.471 117.474C108.587 115.336 107.09 113.509 105.169 112.224C103.249 110.939 100.991 110.253 98.6811 110.253C95.5838 110.253 92.6133 111.485 90.4232 113.679C88.233 115.873 87.0027 118.848 87.0027 121.951Z" fill="#8A0830"/>
        <path d="M35.2249 121.951C35.2249 123.012 35.539 124.049 36.1276 124.932C36.7162 125.814 37.5529 126.502 38.5318 126.908C39.5106 127.314 40.5877 127.421 41.6269 127.214C42.666 127.007 43.6205 126.495 44.3697 125.745C45.1188 124.995 45.629 124.038 45.8357 122.998C46.0424 121.957 45.9364 120.878 45.531 119.897C45.1255 118.917 44.4389 118.079 43.5579 117.489C42.677 116.899 41.6413 116.585 40.5818 116.585C39.8783 116.585 39.1817 116.724 38.5318 116.993C37.8819 117.263 37.2913 117.658 36.7938 118.156C36.2964 118.655 35.9019 119.246 35.6327 119.897C35.3635 120.548 35.2249 121.246 35.2249 121.951V121.951Z" fill="#8A0830"/>
        <path d="M98.6812 122.072L90.3616 142.19" stroke="#1E1E1E" stroke-width="0.98" stroke-miterlimit="10"/>
        <path d="M127.567 10.1108L128.428 17.3747H126.93C126.93 17.3747 127.791 22.896 126.069 23.5516C124.346 24.2073 121.056 22.3956 119.764 22.896C118.16 23.7637 116.623 24.7499 115.165 25.8464L108.499 22.2576L112.805 17.9786L111.72 8.02308L127.567 10.1108Z" fill="#E6B78C"/>
        <path d="M119.23 9.6967C119.23 9.6967 119.937 18.893 121.711 23.0167" stroke="#0B2B52" stroke-width="0.75" stroke-miterlimit="10"/>
        <path d="M122.348 9.42064L112.857 17.9786L111.772 8.02308L122.348 9.42064Z" fill="#1E1E1E"/>
        <path d="M129.961 42.2721L135.783 47.8796L162.585 53.815L167.753 53.2801L171.301 57.4901L165.496 58.7841L160.105 56.0753L134.767 54.3499C132.051 54.1612 129.435 53.2499 127.188 51.71L120.471 47.0687L129.961 42.2721Z" fill="#E6B78C"/>
        <path d="M88.5185 51.8826L92.8248 138.152C92.8248 138.152 102.298 140.102 101.661 140.809C101.024 141.517 88.5185 140.809 88.5185 140.809C88.5185 140.809 80.4056 109.752 83.575 100.435C83.575 100.435 65.0583 64.8575 67.642 50.3987L88.5185 51.8826Z" fill="#E6B78C"/>
        <path d="M89.0352 51.4512L89.9826 81.6801H74.9281C70.5013 70.8274 66.3157 57.9042 67.6248 50.623L89.0352 51.4512Z" fill="#0B2B52"/>
        <path d="M101.661 140.878C101.007 141.603 88.5185 140.878 88.5185 140.878L88.1395 139.343L92.8247 138.221C92.8247 138.221 102.298 140.171 101.661 140.878Z" fill="#0B2B52"/>
        <path d="M129.962 42.2721C129.962 42.2721 119.334 29.556 117.06 26.5365C114.786 23.5171 111.238 20.6012 107.139 20.6012C103.039 20.6012 92.3941 27.6063 87.6573 32.6789C82.4068 37.8739 76.4234 42.2688 69.8985 45.7229C65.799 47.6726 63.9731 51.5547 66.9875 52.5209C70.0018 53.4872 86.9855 53.0558 90.6027 53.2801C94.2199 53.5044 94.7712 48.6388 98.2161 47.3448C101.661 46.0507 112.633 42.2721 112.633 42.2721L120.471 47.1377L129.962 42.2721Z" fill="#F7AC2D"/>
        <path d="M138.143 11.4394H118.317C116.285 11.4394 110.687 10.4731 109.929 7.98857C109.171 5.50401 115.854 -0.103513 120.694 1.02596e-05C125.535 0.103534 131.029 6.71178 133.613 8.85127C135.022 9.88102 136.541 10.7492 138.143 11.4394V11.4394Z" fill="#0B2B52"/>
    </g>
    <defs>
        <clipPath id="clip0_903_8997">
            <rect width="210.832" height="166" fill="white"/>
        </clipPath>
    </defs>
</svg>
